<svg width="19" height="18" viewBox="0 0 19 18" fill="none" xmlns="http://www.w3.org/2000/svg">
<path fill-rule="evenodd" clip-rule="evenodd" d="M8.63434 6C8.63434 5.586 8.986 5.25 9.41929 5.25C9.85258 5.25 10.2042 5.586 10.2042 6V9.75C10.2042 10.164 9.85258 10.5 9.41929 10.5C8.986 10.5 8.63434 10.164 8.63434 9.75V6ZM8.63434 12C8.63434 11.586 8.986 11.25 9.41929 11.25C9.85258 11.25 10.2042 11.586 10.2042 12C10.2042 12.414 9.85258 12.75 9.41929 12.75C8.986 12.75 8.63434 12.414 8.63434 12ZM9.41929 15C5.95689 15 3.13972 12.3082 3.13972 9C3.13972 5.69175 5.95689 3 9.41929 3C12.8817 3 15.6989 5.69175 15.6989 9C15.6989 12.3082 12.8817 15 9.41929 15ZM9.41929 1.5C5.08403 1.5 1.56982 4.85775 1.56982 9C1.56982 13.1423 5.08403 16.5 9.41929 16.5C13.7545 16.5 17.2687 13.1423 17.2687 9C17.2687 4.85775 13.7545 1.5 9.41929 1.5Z" fill="#5C5C5C"/>
<mask id="mask0_1228_9407" style="mask-type:luminance" maskUnits="userSpaceOnUse" x="1" y="1" width="17" height="16">
<path fill-rule="evenodd" clip-rule="evenodd" d="M8.63434 6C8.63434 5.586 8.986 5.25 9.41929 5.25C9.85258 5.25 10.2042 5.586 10.2042 6V9.75C10.2042 10.164 9.85258 10.5 9.41929 10.5C8.986 10.5 8.63434 10.164 8.63434 9.75V6ZM8.63434 12C8.63434 11.586 8.986 11.25 9.41929 11.25C9.85258 11.25 10.2042 11.586 10.2042 12C10.2042 12.414 9.85258 12.75 9.41929 12.75C8.986 12.75 8.63434 12.414 8.63434 12ZM9.41929 15C5.95689 15 3.13972 12.3082 3.13972 9C3.13972 5.69175 5.95689 3 9.41929 3C12.8817 3 15.6989 5.69175 15.6989 9C15.6989 12.3082 12.8817 15 9.41929 15ZM9.41929 1.5C5.08403 1.5 1.56982 4.85775 1.56982 9C1.56982 13.1423 5.08403 16.5 9.41929 16.5C13.7545 16.5 17.2687 13.1423 17.2687 9C17.2687 4.85775 13.7545 1.5 9.41929 1.5Z" fill="white"/>
</mask>
<g mask="url(#mask0_1228_9407)">
</g>
</svg>
