<svg width="84" height="84" viewBox="0 0 84 84" fill="none" xmlns="http://www.w3.org/2000/svg">
<g opacity="0.4">
<path d="M26.8799 40.3199C26.8799 33.9842 26.8799 30.8164 28.8481 28.8481C30.8164 26.8799 33.9842 26.8799 40.3199 26.8799H43.6799C50.0156 26.8799 53.1834 26.8799 55.1516 28.8481C57.1199 30.8164 57.1199 33.9842 57.1199 40.3199V47.0399C57.1199 53.3756 57.1199 56.5434 55.1516 58.5116C53.1834 60.4799 50.0156 60.4799 43.6799 60.4799H40.3199C33.9842 60.4799 30.8164 60.4799 28.8481 58.5116C26.8799 56.5434 26.8799 53.3756 26.8799 47.0399V40.3199Z" stroke="white" stroke-width="1.5"/>
<path d="M35.2803 43.6802H48.7203" stroke="white" stroke-width="1.5" stroke-linecap="round"/>
<path d="M35.2803 36.96H48.7203" stroke="white" stroke-width="1.5" stroke-linecap="round"/>
<path d="M35.2803 50.3999H43.6803" stroke="white" stroke-width="1.5" stroke-linecap="round"/>
</g>
</svg>
