<svg width="19" height="18" viewBox="0 0 19 18" fill="none" xmlns="http://www.w3.org/2000/svg">
<path fill-rule="evenodd" clip-rule="evenodd" d="M5.49428 5.25C5.49428 4.83525 5.84593 4.5 6.27922 4.5C6.71251 4.5 7.06417 4.83525 7.06417 5.25C7.06417 5.66475 6.71251 6 6.27922 6C5.84593 6 5.49428 5.66475 5.49428 5.25ZM8.63406 5.25C8.63406 4.83525 8.98572 4.5 9.41901 4.5C9.8523 4.5 10.204 4.83525 10.204 5.25C10.204 5.66475 9.8523 6 9.41901 6C8.98572 6 8.63406 5.66475 8.63406 5.25ZM3.92438 6.75V4.5C3.92438 4.086 4.27683 3.75 4.70933 3.75H14.1287C14.5612 3.75 14.9136 4.086 14.9136 4.5V6.75H3.92438ZM14.9136 13.5C14.9136 13.914 14.5612 14.25 14.1287 14.25H4.70933C4.27683 14.25 3.92438 13.914 3.92438 13.5V8.25H14.9136V13.5ZM14.1287 2.25H4.70933C3.41103 2.25 2.35449 3.2595 2.35449 4.5V6.75V8.25V13.5C2.35449 14.7405 3.41103 15.75 4.70933 15.75H14.1287C15.427 15.75 16.4835 14.7405 16.4835 13.5V8.25V6.75V4.5C16.4835 3.2595 15.427 2.25 14.1287 2.25Z" fill="#5C5C5C"/>
<mask id="mask0_762_2144" style="mask-type:luminance" maskUnits="userSpaceOnUse" x="2" y="2" width="15" height="14">
<path fill-rule="evenodd" clip-rule="evenodd" d="M5.49428 5.25C5.49428 4.83525 5.84593 4.5 6.27922 4.5C6.71251 4.5 7.06417 4.83525 7.06417 5.25C7.06417 5.66475 6.71251 6 6.27922 6C5.84593 6 5.49428 5.66475 5.49428 5.25ZM8.63406 5.25C8.63406 4.83525 8.98572 4.5 9.41901 4.5C9.8523 4.5 10.204 4.83525 10.204 5.25C10.204 5.66475 9.8523 6 9.41901 6C8.98572 6 8.63406 5.66475 8.63406 5.25ZM3.92438 6.75V4.5C3.92438 4.086 4.27683 3.75 4.70933 3.75H14.1287C14.5612 3.75 14.9136 4.086 14.9136 4.5V6.75H3.92438ZM14.9136 13.5C14.9136 13.914 14.5612 14.25 14.1287 14.25H4.70933C4.27683 14.25 3.92438 13.914 3.92438 13.5V8.25H14.9136V13.5ZM14.1287 2.25H4.70933C3.41103 2.25 2.35449 3.2595 2.35449 4.5V6.75V8.25V13.5C2.35449 14.7405 3.41103 15.75 4.70933 15.75H14.1287C15.427 15.75 16.4835 14.7405 16.4835 13.5V8.25V6.75V4.5C16.4835 3.2595 15.427 2.25 14.1287 2.25Z" fill="white"/>
</mask>
<g mask="url(#mask0_762_2144)">
</g>
</svg>
