<svg width="19" height="18" viewBox="0 0 19 18" fill="none" xmlns="http://www.w3.org/2000/svg">
<path d="M4.70898 6.6C4.70898 4.90294 4.70898 4.05442 5.30017 3.52721C5.89136 3 6.84285 3 8.74585 3H10.0915C11.9945 3 12.946 3 13.5372 3.52721C14.1283 4.05442 14.1283 4.90294 14.1283 6.6V11.4C14.1283 13.0971 14.1283 13.9456 13.5372 14.4728C12.946 15 11.9945 15 10.0915 15H8.74585C6.84285 15 5.89136 15 5.30017 14.4728C4.70898 13.9456 4.70898 13.0971 4.70898 11.4V6.6Z" stroke="#5C5C5C" stroke-width="1.5"/>
<path d="M7.06445 9.75H11.7741" stroke="#5C5C5C" stroke-width="1.5" stroke-linecap="round"/>
<path d="M7.06445 6.75H11.7741" stroke="#5C5C5C" stroke-width="1.5" stroke-linecap="round"/>
<path d="M7.06445 12H9.41929" stroke="#5C5C5C" stroke-width="1.5" stroke-linecap="round"/>
<path d="M2.35547 13.5V4.5" stroke="#5C5C5C" stroke-width="1.5" stroke-linecap="round"/>
<path d="M16.4844 13.5V4.5" stroke="#5C5C5C" stroke-width="1.5" stroke-linecap="round"/>
</svg>
