<svg width="140" height="140" viewBox="0 0 140 140" fill="none" xmlns="http://www.w3.org/2000/svg">
<circle cx="69.9999" cy="69.9999" r="61.1512" fill="#C1CBFF"/>
<circle cx="70" cy="70" r="68.1038" fill="#EDF7FF" stroke="white" stroke-width="3.79233"/>
<mask id="mask0_1215_13859" style="mask-type:alpha" maskUnits="userSpaceOnUse" x="4" y="4" width="132" height="132">
<circle cx="70" cy="70.001" r="65.8916" fill="white"/>
</mask>
<g mask="url(#mask0_1215_13859)">
<mask id="mask1_1215_13859" style="mask-type:luminance" maskUnits="userSpaceOnUse" x="19" y="38" width="102" height="103">
<path d="M19.2773 38.5563H120.722V140.001H19.2773V38.5563Z" fill="white"/>
</mask>
<g mask="url(#mask1_1215_13859)">
<path d="M108.481 66.8164L84.4549 42.79C83.4436 41.8389 82.1018 41.3187 80.7137 41.3399C79.3256 41.361 78.0002 41.9217 77.0184 42.9032C76.0365 43.8847 75.4754 45.2098 75.4538 46.5979C75.4321 47.986 75.9518 49.328 76.9026 50.3396L66.6006 60.6416L90.627 84.668L100.929 74.366C101.93 75.3675 103.288 75.9303 104.704 75.9305C105.405 75.9306 106.1 75.7927 106.747 75.5244C107.395 75.2562 107.984 74.863 108.48 74.3673C108.976 73.8716 109.369 73.2831 109.638 72.6353C109.906 71.9876 110.044 71.2933 110.044 70.5921C110.045 69.891 109.907 69.1966 109.638 68.5488C109.37 67.9009 108.977 67.3123 108.481 66.8164Z" fill="#9CD4FF"/>
<path d="M80.6774 41.2256H40.6335C37.8014 41.2256 35.0853 42.3506 33.0827 44.3532C31.0801 46.3558 29.9551 49.0719 29.9551 51.9039V126.653C29.9551 129.485 31.0801 132.201 33.0827 134.203C35.0853 136.206 37.8014 137.331 40.6335 137.331H99.3646C102.197 137.331 104.913 136.206 106.915 134.203C108.918 132.201 110.043 129.485 110.043 126.653V70.5911H86.0166C83.347 70.5911 80.6774 67.9215 80.6774 65.2519V41.2256Z" fill="url(#paint0_linear_1215_13859)"/>
<path d="M80.6781 41.2259H75.3389V65.2523C75.3389 68.0844 76.4639 70.8005 78.4665 72.803C80.4691 74.8056 83.1852 75.9307 86.0173 75.9307H110.044V70.5915H86.0173C83.3477 70.5915 80.6781 67.9219 80.6781 65.2523V41.2259Z" fill="white"/>
<path d="M67.3298 70.932C67.3298 71.64 67.0485 72.319 66.5479 72.8197C66.0472 73.3203 65.3682 73.6016 64.6602 73.6016H43.3034C42.5954 73.6016 41.9163 73.3203 41.4157 72.8197C40.915 72.319 40.6338 71.64 40.6338 70.932C40.6338 70.2239 40.915 69.5449 41.4157 69.0443C41.9163 68.5436 42.5954 68.2624 43.3034 68.2624H64.6602C65.3682 68.2624 66.0472 68.5436 66.5479 69.0443C67.0485 69.5449 67.3298 70.2239 67.3298 70.932Z" fill="white"/>
<path d="M67.3298 111.7C67.3298 112.408 67.0485 113.087 66.5479 113.587C66.0472 114.088 65.3682 114.369 64.6602 114.369H43.3034C42.5954 114.369 41.9163 114.088 41.4157 113.587C40.915 113.087 40.6338 112.408 40.6338 111.7C40.6338 110.992 40.915 110.312 41.4157 109.812C41.9163 109.311 42.5954 109.03 43.3034 109.03H64.6602C65.3682 109.03 66.0472 109.311 66.5479 109.812C67.0485 110.312 67.3298 110.992 67.3298 111.7Z" fill="white"/>
<path d="M99.3649 83.889C99.3649 84.597 99.0837 85.276 98.583 85.7767C98.0824 86.2773 97.4034 86.5586 96.6953 86.5586H43.3034C42.5954 86.5586 41.9163 86.2773 41.4157 85.7767C40.915 85.276 40.6338 84.597 40.6338 83.889C40.6338 83.181 40.915 82.502 41.4157 82.0013C41.9163 81.5007 42.5954 81.2194 43.3034 81.2194H96.6953C97.4034 81.2194 98.0824 81.5007 98.583 82.0013C99.0837 82.502 99.3649 83.181 99.3649 83.889Z" fill="white"/>
<path d="M89.4348 96.8294C89.4348 97.5418 89.2017 98.2251 88.7868 98.7288C88.372 99.2326 87.8093 99.5156 87.2226 99.5156H42.9788C42.3921 99.5156 41.8294 99.2326 41.4145 98.7288C40.9997 98.2251 40.7666 97.5418 40.7666 96.8294C40.7666 96.117 40.9997 95.4337 41.4145 94.9299C41.8294 94.4262 42.3921 94.1432 42.9788 94.1432H87.2226C87.8093 94.1432 88.372 94.4262 88.7868 94.9299C89.2017 95.4337 89.4348 96.117 89.4348 96.8294Z" fill="white"/>
</g>
<path d="M101.443 113.87L100.38 114.861L97.2262 111.479L96.1064 110.278L97.169 109.287L98.2888 110.488L101.443 113.87Z" fill="#B7C2FF"/>
<path d="M98.2888 110.488C98.1193 110.66 97.9449 110.828 97.7677 110.994C97.5904 111.159 97.4093 111.322 97.2262 111.478L96.1064 110.277L97.172 109.286L98.2888 110.488ZM101.613 114.029C101.444 114.2 101.269 114.369 101.092 114.534C100.915 114.7 100.734 114.863 100.551 115.019L99.4308 113.817L100.496 112.827L101.613 114.029Z" fill="#848DBC"/>
<path d="M102.698 98.0983C102.575 101.564 101.427 104.915 99.4004 107.729C97.3736 110.543 94.5583 112.694 91.3102 113.908C88.0621 115.123 84.5268 115.348 81.1508 114.555C77.7749 113.762 74.7097 111.986 72.3424 109.452C69.17 106.05 67.4787 101.527 67.6405 96.8778C67.8024 92.2289 69.8041 87.8345 73.2055 84.6613C80.2766 78.0648 91.3986 78.4513 97.9951 85.5244C99.5715 87.2051 100.799 89.1819 101.606 91.3402C102.413 93.4986 102.784 95.7956 102.698 98.0983Z" fill="url(#paint1_linear_1215_13859)"/>
<path d="M99.4216 97.9912C99.2933 101.683 97.7374 105.181 95.0813 107.749C92.4253 110.316 88.8766 111.753 85.1825 111.756C85.0139 111.756 84.8444 111.753 84.6739 111.747C83.7883 111.716 82.9073 111.605 82.0421 111.413C80.3948 111.047 78.8266 110.388 77.412 109.468C76.4344 108.83 75.5379 108.076 74.7424 107.222C72.1923 104.452 70.8415 100.785 70.985 97.0218C71.1284 93.2589 72.7544 89.7054 75.5081 87.1369C78.2619 84.5684 81.9197 83.1933 85.6836 83.3118C89.4474 83.4302 93.0115 85.0325 95.5983 87.7691C96.1684 88.38 96.6844 89.0392 97.1404 89.7394C98.0614 91.1527 98.7212 92.72 99.0883 94.3666C99.353 95.5557 99.4649 96.7738 99.4216 97.9912Z" fill="url(#paint2_linear_1215_13859)"/>
<path d="M89.8867 89.8601C87.582 88.5521 84.8522 88.2128 82.2974 88.9168C79.7426 89.6209 77.572 91.3106 76.2627 93.6146" stroke="white" stroke-width="4.74041" stroke-linecap="round" stroke-linejoin="round"/>
<path d="M114.546 128.549C113.946 129.111 113.155 129.422 112.333 129.421H112.218C111.793 129.408 111.374 129.31 110.987 129.134C110.6 128.958 110.251 128.707 109.961 128.396L98.0293 116.06L102.776 111.631L114.705 123.96C115.292 124.59 115.604 125.427 115.574 126.288C115.544 127.148 115.174 127.961 114.546 128.549Z" fill="#E1E6FF"/>
<path d="M114.968 128.069C114.668 128.488 114.273 128.829 113.814 129.065C113.356 129.301 112.849 129.424 112.333 129.425H112.218C111.793 129.411 111.374 129.313 110.987 129.136C110.599 128.96 110.251 128.708 109.961 128.396L98.0293 116.061L98.7984 115.343L110.705 127.65C110.995 127.962 111.343 128.213 111.731 128.389C112.118 128.565 112.537 128.663 112.962 128.676H113.077C113.756 128.678 114.417 128.465 114.968 128.069Z" fill="#B5C0FF"/>
<path d="M102.708 113.092L113.943 124.327" stroke="white" stroke-width="0.948081" stroke-linecap="round" stroke-linejoin="round"/>
</g>
<defs>
<linearGradient id="paint0_linear_1215_13859" x1="69.999" y1="137.331" x2="69.999" y2="41.2256" gradientUnits="userSpaceOnUse">
<stop stop-color="#E8F5FF"/>
<stop offset="1" stop-color="#BDE3FF"/>
</linearGradient>
<linearGradient id="paint1_linear_1215_13859" x1="85.17" y1="79.9561" x2="85.17" y2="115.02" gradientUnits="userSpaceOnUse">
<stop stop-color="#B7E5FF"/>
<stop offset="1" stop-color="#A4CEFF"/>
</linearGradient>
<linearGradient id="paint2_linear_1215_13859" x1="85.2026" y1="83.3047" x2="85.2026" y2="111.756" gradientUnits="userSpaceOnUse">
<stop stop-color="#EFF2FF"/>
<stop offset="1" stop-color="white"/>
</linearGradient>
</defs>
</svg>
