<svg width="19" height="18" viewBox="0 0 19 18" fill="none" xmlns="http://www.w3.org/2000/svg">
<path d="M7.71913 3.06018C8.1514 2.70821 8.36753 2.53222 8.59351 2.42902C9.11618 2.19033 9.72379 2.19033 10.2465 2.42902C10.4724 2.53222 10.6886 2.70821 11.1208 3.06018C11.2929 3.20027 11.3789 3.27031 11.4708 3.32915C11.6814 3.46402 11.9179 3.55762 12.1666 3.60454C12.2751 3.62501 12.3878 3.6336 12.6131 3.65078C13.1792 3.69394 13.4623 3.71553 13.6985 3.79523C14.2447 3.97957 14.6743 4.39009 14.8673 4.912C14.9507 5.13765 14.9733 5.40812 15.0185 5.94905C15.0364 6.16435 15.0454 6.27199 15.0668 6.37567C15.116 6.61332 15.2139 6.8393 15.3551 7.04052C15.4166 7.1283 15.49 7.21049 15.6366 7.37487C16.0049 7.78789 16.1891 7.99441 16.2971 8.21032C16.547 8.70972 16.547 9.29028 16.2971 9.78968C16.1891 10.0056 16.0049 10.2121 15.6366 10.6251C15.49 10.7895 15.4166 10.8717 15.3551 10.9595C15.2139 11.1607 15.116 11.3867 15.0668 11.6243C15.0454 11.728 15.0364 11.8357 15.0185 12.0509C14.9733 12.5919 14.9507 12.8623 14.8673 13.088C14.6743 13.6099 14.2447 14.0204 13.6985 14.2048C13.4623 14.2845 13.1792 14.3061 12.6131 14.3492C12.3878 14.3664 12.2751 14.375 12.1666 14.3955C11.9179 14.4424 11.6814 14.536 11.4708 14.6709C11.3789 14.7297 11.2929 14.7997 11.1208 14.9398C10.6886 15.2918 10.4724 15.4678 10.2465 15.571C9.72379 15.8097 9.11618 15.8097 8.59351 15.571C8.36753 15.4678 8.1514 15.2918 7.71913 14.9398C7.54709 14.7997 7.46107 14.7297 7.3692 14.6709C7.1586 14.536 6.92209 14.4424 6.67337 14.3955C6.56487 14.375 6.45221 14.3664 6.22688 14.3492C5.66074 14.3061 5.37767 14.2845 5.14151 14.2048C4.59528 14.0204 4.16563 13.6099 3.9727 13.088C3.88928 12.8623 3.86669 12.5919 3.82151 12.0509C3.80353 11.8357 3.79454 11.728 3.77312 11.6243C3.72402 11.3867 3.62605 11.1607 3.4849 10.9595C3.42332 10.8717 3.35002 10.7895 3.2034 10.6251C2.83503 10.2121 2.65084 10.0056 2.54283 9.78968C2.29301 9.29028 2.29301 8.70972 2.54283 8.21032C2.65084 7.99441 2.83503 7.78789 3.2034 7.37487C3.35002 7.21049 3.42332 7.1283 3.4849 7.04052C3.62605 6.8393 3.72402 6.61332 3.77312 6.37567C3.79454 6.27199 3.80353 6.16435 3.82151 5.94905C3.86669 5.40812 3.88928 5.13765 3.9727 4.912C4.16563 4.39009 4.59528 3.97957 5.14151 3.79523C5.37767 3.71553 5.66074 3.69394 6.22688 3.65078C6.4522 3.6336 6.56487 3.62501 6.67337 3.60454C6.92209 3.55762 7.1586 3.46402 7.3692 3.32915C7.46107 3.27031 7.54709 3.20027 7.71913 3.06018Z" stroke="#5C5C5C" stroke-width="1.5"/>
<path d="M7.06445 9.3L8.41008 10.5L11.7741 7.5" stroke="#5C5C5C" stroke-width="1.5" stroke-linecap="round" stroke-linejoin="round"/>
</svg>
