<svg width="80" height="80" viewBox="0 0 80 80" fill="none" xmlns="http://www.w3.org/2000/svg">
<path d="M26.5608 13.3335C27.6742 13.3335 28.5768 14.16 28.5768 15.1796V18.9037C30.365 18.872 32.3694 18.872 34.6247 18.872H45.3766C47.6319 18.872 49.6363 18.872 51.4245 18.9037V15.1796C51.4245 14.16 52.3271 13.3335 53.4405 13.3335C54.5539 13.3335 55.4565 14.16 55.4565 15.1796V19.0671C59.3254 19.3508 61.8652 20.047 63.7312 21.7558C65.5972 23.4646 66.3575 25.7905 66.6673 29.3335V32.0002H13.334V29.3335C13.6438 25.7905 14.4041 23.4646 16.2701 21.7558C18.1361 20.047 20.6759 19.3508 24.5448 19.0671V15.1796C24.5448 14.16 25.4474 13.3335 26.5608 13.3335Z" fill="#C49991"/>
<path opacity="0.5" d="M66.6673 45.3333V40C66.6673 37.7626 66.6335 33.774 66.5991 32H13.3496C13.3152 33.774 13.349 37.7626 13.349 40V45.3333C13.349 55.39 13.349 60.4183 16.4723 63.5425C19.5957 66.6667 24.6226 66.6667 34.6763 66.6667H45.34C55.3938 66.6667 60.4207 66.6667 63.544 63.5425C66.6673 60.4183 66.6673 55.39 66.6673 45.3333Z" fill="#C49991"/>
<path d="M60 70.5C66.3513 70.5 71.5 65.3513 71.5 59C71.5 52.6487 66.3513 47.5 60 47.5C53.6487 47.5 48.5 52.6487 48.5 59C48.5 65.3513 53.6487 70.5 60 70.5Z" fill="#10CD43" stroke="white" stroke-width="3" stroke-linecap="round"/>
<path d="M70.4455 59.0001C70.4455 53.2318 65.7694 48.5557 60.0011 48.5557C54.2328 48.5557 49.5566 53.2318 49.5566 59.0001C49.5566 64.7684 54.2328 69.4446 60.0011 69.4446C65.7694 69.4446 70.4455 64.7684 70.4455 59.0001Z" fill="#EA4335"/>
<path d="M59.9995 52.9946C60.4321 52.9946 60.7829 53.3453 60.7829 53.778V60.0446C60.7829 60.4773 60.4321 60.828 59.9995 60.828C59.5669 60.828 59.2162 60.4773 59.2162 60.0446V53.778C59.2162 53.3453 59.5669 52.9946 59.9995 52.9946Z" fill="white"/>
<path d="M59.9995 64.2224C60.5764 64.2224 61.044 63.7548 61.044 63.178C61.044 62.6011 60.5764 62.1335 59.9995 62.1335C59.4227 62.1335 58.9551 62.6011 58.9551 63.178C58.9551 63.7548 59.4227 64.2224 59.9995 64.2224Z" fill="white"/>
</svg>
