<svg width="40" height="40" viewBox="0 0 40 40" fill="none" xmlns="http://www.w3.org/2000/svg">
<circle cx="20" cy="21.6665" r="5" stroke="#A6A6A6" stroke-width="1.5"/>
<path d="M16.296 35H23.7034C28.9051 35 31.5059 35 33.3743 33.7743C34.1831 33.2437 34.8775 32.5619 35.418 31.7678C36.6663 29.9334 36.6663 27.3799 36.6663 22.2727C36.6663 17.1656 36.6663 14.612 35.418 12.7777C34.8775 11.9836 34.1831 11.3017 33.3743 10.7711C32.1738 9.98356 30.6708 9.70205 28.3697 9.60143C27.2716 9.60143 26.3261 8.78447 26.1108 7.72727C25.7878 6.14148 24.3696 5 22.7224 5H17.2769C15.6298 5 14.2116 6.14148 13.8886 7.72727C13.6732 8.78447 12.7278 9.60143 11.6297 9.60143C9.32857 9.70205 7.8256 9.98356 6.62508 10.7711C5.81626 11.3017 5.12181 11.9836 4.58138 12.7777C3.33301 14.612 3.33301 17.1656 3.33301 22.2727C3.33301 27.3799 3.33301 29.9334 4.58138 31.7678C5.12181 32.5619 5.81626 33.2437 6.62508 33.7743C8.4934 35 11.0943 35 16.296 35Z" stroke="#A6A6A6" stroke-width="1.5"/>
<path d="M31.6667 16.6665H30" stroke="#A6A6A6" stroke-width="1.5" stroke-linecap="round"/>
</svg>
