<svg width="19" height="18" viewBox="0 0 19 18" fill="none" xmlns="http://www.w3.org/2000/svg">
<path fill-rule="evenodd" clip-rule="evenodd" d="M5.49525 5.25C5.49525 4.83525 5.84691 4.5 6.2802 4.5C6.71349 4.5 7.06515 4.83525 7.06515 5.25C7.06515 5.66475 6.71349 6 6.2802 6C5.84691 6 5.49525 5.66475 5.49525 5.25ZM8.63504 5.25C8.63504 4.83525 8.98669 4.5 9.41998 4.5C9.85328 4.5 10.2049 4.83525 10.2049 5.25C10.2049 5.66475 9.85328 6 9.41998 6C8.98669 6 8.63504 5.66475 8.63504 5.25ZM3.92536 6.75V4.5C3.92536 4.086 4.2778 3.75 4.71031 3.75H14.1297C14.5622 3.75 14.9146 4.086 14.9146 4.5V6.75H3.92536ZM14.9146 13.5C14.9146 13.914 14.5622 14.25 14.1297 14.25H4.71031C4.2778 14.25 3.92536 13.914 3.92536 13.5V8.25H14.9146V13.5ZM14.1297 2.25H4.71031C3.41201 2.25 2.35547 3.2595 2.35547 4.5V6.75V8.25V13.5C2.35547 14.7405 3.41201 15.75 4.71031 15.75H14.1297C15.428 15.75 16.4845 14.7405 16.4845 13.5V8.25V6.75V4.5C16.4845 3.2595 15.428 2.25 14.1297 2.25Z" fill="#279AF1"/>
<mask id="mask0_460_2265" style="mask-type:luminance" maskUnits="userSpaceOnUse" x="2" y="2" width="15" height="14">
<path fill-rule="evenodd" clip-rule="evenodd" d="M5.49525 5.25C5.49525 4.83525 5.84691 4.5 6.2802 4.5C6.71349 4.5 7.06515 4.83525 7.06515 5.25C7.06515 5.66475 6.71349 6 6.2802 6C5.84691 6 5.49525 5.66475 5.49525 5.25ZM8.63504 5.25C8.63504 4.83525 8.98669 4.5 9.41998 4.5C9.85328 4.5 10.2049 4.83525 10.2049 5.25C10.2049 5.66475 9.85328 6 9.41998 6C8.98669 6 8.63504 5.66475 8.63504 5.25ZM3.92536 6.75V4.5C3.92536 4.086 4.2778 3.75 4.71031 3.75H14.1297C14.5622 3.75 14.9146 4.086 14.9146 4.5V6.75H3.92536ZM14.9146 13.5C14.9146 13.914 14.5622 14.25 14.1297 14.25H4.71031C4.2778 14.25 3.92536 13.914 3.92536 13.5V8.25H14.9146V13.5ZM14.1297 2.25H4.71031C3.41201 2.25 2.35547 3.2595 2.35547 4.5V6.75V8.25V13.5C2.35547 14.7405 3.41201 15.75 4.71031 15.75H14.1297C15.428 15.75 16.4845 14.7405 16.4845 13.5V8.25V6.75V4.5C16.4845 3.2595 15.428 2.25 14.1297 2.25Z" fill="white"/>
</mask>
<g mask="url(#mask0_460_2265)">
</g>
</svg>
