<svg width="19" height="15" viewBox="0 0 19 15" fill="none" xmlns="http://www.w3.org/2000/svg">
<path d="M7.06445 3.25C7.06445 2.40885 7.06445 1.98827 7.25375 1.675C7.37775 1.46977 7.55612 1.29935 7.7709 1.18087C8.09877 1 8.53894 1 9.41929 1C10.2996 1 10.7398 1 11.0677 1.18087C11.2825 1.29935 11.4608 1.46977 11.5848 1.675C11.7741 1.98827 11.7741 2.40885 11.7741 3.25C11.7741 4.09115 11.7741 4.51173 11.5848 4.825C11.4608 5.03023 11.2825 5.20065 11.0677 5.31913C10.7398 5.5 10.2996 5.5 9.41929 5.5C8.53894 5.5 8.09877 5.5 7.7709 5.31913C7.55612 5.20065 7.37775 5.03023 7.25375 4.825C7.06445 4.51173 7.06445 4.09115 7.06445 3.25Z" stroke="#5C5C5C" stroke-width="1.5"/>
<path d="M14.1289 12.25C14.1289 11.6892 14.1289 11.4088 14.2551 11.2C14.3378 11.0632 14.4567 10.9496 14.5999 10.8706C14.8185 10.75 15.1119 10.75 15.6988 10.75C16.2857 10.75 16.5791 10.75 16.7977 10.8706C16.9409 10.9496 17.0598 11.0632 17.1425 11.2C17.2687 11.4088 17.2687 11.6892 17.2687 12.25C17.2687 12.8108 17.2687 13.0912 17.1425 13.3C17.0598 13.4368 16.9409 13.5504 16.7977 13.6294C16.5791 13.75 16.2857 13.75 15.6988 13.75C15.1119 13.75 14.8185 13.75 14.5999 13.6294C14.4567 13.5504 14.3378 13.4368 14.2551 13.3C14.1289 13.0912 14.1289 12.8108 14.1289 12.25Z" stroke="#5C5C5C" stroke-width="1.5"/>
<path d="M7.84961 12.25C7.84961 11.6892 7.84961 11.4088 7.9758 11.2C8.05848 11.0632 8.17738 10.9496 8.32058 10.8706C8.53915 10.75 8.8326 10.75 9.4195 10.75C10.0064 10.75 10.2998 10.75 10.5184 10.8706C10.6616 10.9496 10.7805 11.0632 10.8632 11.2C10.9894 11.4088 10.9894 11.6892 10.9894 12.25C10.9894 12.8108 10.9894 13.0912 10.8632 13.3C10.7805 13.4368 10.6616 13.5504 10.5184 13.6294C10.2998 13.75 10.0064 13.75 9.4195 13.75C8.8326 13.75 8.53915 13.75 8.32058 13.6294C8.17738 13.5504 8.05848 13.4368 7.9758 13.3C7.84961 13.0912 7.84961 12.8108 7.84961 12.25Z" stroke="#5C5C5C" stroke-width="1.5"/>
<path d="M1.57031 12.25C1.57031 11.6892 1.57031 11.4088 1.69651 11.2C1.77918 11.0632 1.89809 10.9496 2.04128 10.8706C2.25986 10.75 2.55331 10.75 3.1402 10.75C3.7271 10.75 4.02055 10.75 4.23913 10.8706C4.38232 10.9496 4.50123 11.0632 4.5839 11.2C4.7101 11.4088 4.7101 11.6892 4.7101 12.25C4.7101 12.8108 4.7101 13.0912 4.5839 13.3C4.50123 13.4368 4.38232 13.5504 4.23913 13.6294C4.02055 13.75 3.7271 13.75 3.1402 13.75C2.55331 13.75 2.25986 13.75 2.04128 13.6294C1.89809 13.5504 1.77918 13.4368 1.69651 13.3C1.57031 13.0912 1.57031 12.8108 1.57031 12.25Z" stroke="#5C5C5C" stroke-width="1.5"/>
<path d="M3.14062 10V10C3.14062 9.76783 3.14062 9.65175 3.15026 9.55397C3.24378 8.60441 3.99504 7.85315 4.94459 7.75963C5.04237 7.75 5.15846 7.75 5.39062 7.75H13.4498C13.6819 7.75 13.798 7.75 13.8958 7.75963C14.8454 7.85315 15.5966 8.60441 15.6901 9.55397C15.6998 9.65175 15.6998 9.76783 15.6998 10V10" stroke="#5C5C5C" stroke-width="1.5"/>
<line x1="9.38477" y1="7.75" x2="9.38477" y2="10" stroke="#5C5C5C" stroke-width="1.5"/>
</svg>
