<svg width="86" height="86" viewBox="0 0 86 86" fill="none" xmlns="http://www.w3.org/2000/svg">
<g opacity="0.4">
<path d="M52.6752 33.5402V29.6702C52.6752 26.0215 52.6752 24.1972 51.5417 23.0637C50.4082 21.9302 48.5839 21.9302 44.9352 21.9302H41.0652C37.4165 21.9302 35.5922 21.9302 34.4587 23.0637C33.3252 24.1972 33.3252 26.0215 33.3252 29.6702V33.5402" stroke="white" stroke-width="1.6875"/>
<path d="M41.3477 41.3238C42.083 40.0047 42.4507 39.3452 43.0003 39.3452C43.55 39.3452 43.9176 40.0047 44.6529 41.3238L44.8431 41.665C45.0521 42.0399 45.1565 42.2273 45.3194 42.3509C45.4823 42.4746 45.6852 42.5205 46.091 42.6123L46.4604 42.6959C47.8882 43.0189 48.6021 43.1805 48.772 43.7267C48.9418 44.2729 48.4551 44.842 47.4817 45.9803L47.2299 46.2748C46.9533 46.5982 46.815 46.76 46.7527 46.96C46.6905 47.1601 46.7114 47.3759 46.7533 47.8075L46.7913 48.2004C46.9385 49.7191 47.0121 50.4785 46.5674 50.816C46.1227 51.1536 45.4543 50.8458 44.1174 50.2303L43.7715 50.071C43.3916 49.8961 43.2017 49.8086 43.0003 49.8086C42.799 49.8086 42.609 49.8961 42.2291 50.071L41.8832 50.2303C40.5464 50.8458 39.8779 51.1536 39.4332 50.816C38.9885 50.4785 39.0621 49.7191 39.2093 48.2004L39.2474 47.8075C39.2892 47.3759 39.3101 47.1601 39.2479 46.96C39.1857 46.76 39.0474 46.5982 38.7707 46.2748L38.5189 45.9803C37.5455 44.842 37.0588 44.2729 37.2286 43.7267C37.3985 43.1805 38.1124 43.0189 39.5403 42.6959L39.9097 42.6123C40.3154 42.5205 40.5183 42.4746 40.6812 42.3509C40.8441 42.2273 40.9485 42.0399 41.1575 41.665L41.3477 41.3238Z" stroke="white" stroke-width="1.6875"/>
<circle cx="42.9995" cy="45.1499" r="15.48" stroke="white" stroke-width="1.6875"/>
</g>
</svg>
