<svg width="86" height="86" viewBox="0 0 86 86" fill="none" xmlns="http://www.w3.org/2000/svg">
<g opacity="0.4">
<path d="M25.7998 43.0002C25.7998 36.5137 25.7998 33.2704 27.8149 31.2553C29.83 29.2402 33.0733 29.2402 39.5598 29.2402H46.4398C52.9263 29.2402 56.1696 29.2402 58.1847 31.2553C60.1998 33.2704 60.1998 36.5137 60.1998 43.0002V46.4402C60.1998 52.9268 60.1998 56.17 58.1847 58.1851C56.1696 60.2002 52.9263 60.2002 46.4398 60.2002H39.5598C33.0733 60.2002 29.83 60.2002 27.8149 58.1851C25.7998 56.17 25.7998 52.9268 25.7998 46.4402V43.0002Z" stroke="white" stroke-width="1.5"/>
<path d="M34.4004 29.2402V26.6602" stroke="white" stroke-width="1.5" stroke-linecap="round"/>
<path d="M51.5996 29.2402V26.6602" stroke="white" stroke-width="1.5" stroke-linecap="round"/>
<path d="M26.6602 37.8398H59.3402" stroke="white" stroke-width="1.5" stroke-linecap="round"/>
<path d="M53.3199 51.6C53.3199 52.5499 52.5498 53.32 51.5999 53.32C50.65 53.32 49.8799 52.5499 49.8799 51.6C49.8799 50.6501 50.65 49.88 51.5999 49.88C52.5498 49.88 53.3199 50.6501 53.3199 51.6Z" fill="white"/>
<path d="M53.3199 44.72C53.3199 45.6699 52.5498 46.44 51.5999 46.44C50.65 46.44 49.8799 45.6699 49.8799 44.72C49.8799 43.7701 50.65 43 51.5999 43C52.5498 43 53.3199 43.7701 53.3199 44.72Z" fill="white"/>
<path d="M44.7203 51.6C44.7203 52.5499 43.9502 53.32 43.0003 53.32C42.0503 53.32 41.2803 52.5499 41.2803 51.6C41.2803 50.6501 42.0503 49.88 43.0003 49.88C43.9502 49.88 44.7203 50.6501 44.7203 51.6Z" fill="white"/>
<path d="M44.7203 44.72C44.7203 45.6699 43.9502 46.44 43.0003 46.44C42.0503 46.44 41.2803 45.6699 41.2803 44.72C41.2803 43.7701 42.0503 43 43.0003 43C43.9502 43 44.7203 43.7701 44.7203 44.72Z" fill="white"/>
<path d="M36.1197 51.6C36.1197 52.5499 35.3496 53.32 34.3997 53.32C33.4498 53.32 32.6797 52.5499 32.6797 51.6C32.6797 50.6501 33.4498 49.88 34.3997 49.88C35.3496 49.88 36.1197 50.6501 36.1197 51.6Z" fill="white"/>
<path d="M36.1197 44.72C36.1197 45.6699 35.3496 46.44 34.3997 46.44C33.4498 46.44 32.6797 45.6699 32.6797 44.72C32.6797 43.7701 33.4498 43 34.3997 43C35.3496 43 36.1197 43.7701 36.1197 44.72Z" fill="white"/>
</g>
</svg>
