<svg width="17" height="14" viewBox="0 0 17 14" fill="none" xmlns="http://www.w3.org/2000/svg">
<path fill-rule="evenodd" clip-rule="evenodd" d="M16.2692 12.25C16.2692 12.664 15.9184 13 15.4843 13C15.0502 13 14.6993 12.664 14.6993 12.25C14.6993 11.0095 13.6428 10 12.3445 10C11.8084 10 11.299 10.1755 10.8876 10.4867C11.3147 11.2338 11.5596 12.0903 11.5596 13C11.5596 13.414 11.2087 13.75 10.7746 13.75C10.3405 13.75 9.98967 13.414 9.98967 13C9.98967 10.9323 8.22903 9.25 6.06494 9.25C3.90084 9.25 2.1402 10.9323 2.1402 13C2.1402 13.414 1.78933 13.75 1.35526 13.75C0.921183 13.75 0.570312 13.414 0.570312 13C0.570312 10.105 3.03583 7.75 6.06494 7.75C7.57753 7.75 8.94804 8.33725 9.94257 9.2845C10.6247 8.7805 11.4646 8.5 12.3445 8.5C14.5086 8.5 16.2692 10.1823 16.2692 12.25ZM12.3445 4.75C12.7778 4.75 13.1295 5.08675 13.1295 5.5C13.1295 5.91325 12.7778 6.25 12.3445 6.25C11.9112 6.25 11.5596 5.91325 11.5596 5.5C11.5596 5.08675 11.9112 4.75 12.3445 4.75ZM12.3445 7.75C13.6428 7.75 14.6993 6.7405 14.6993 5.5C14.6993 4.2595 13.6428 3.25 12.3445 3.25C11.0462 3.25 9.98967 4.2595 9.98967 5.5C9.98967 6.7405 11.0462 7.75 12.3445 7.75ZM6.06494 1.75C6.93073 1.75 7.63483 2.42275 7.63483 3.25C7.63483 4.07725 6.93073 4.75 6.06494 4.75C5.19914 4.75 4.49504 4.07725 4.49504 3.25C4.49504 2.42275 5.19914 1.75 6.06494 1.75ZM6.06494 6.25C7.79653 6.25 9.20472 4.9045 9.20472 3.25C9.20472 1.5955 7.79653 0.25 6.06494 0.25C4.33334 0.25 2.92515 1.5955 2.92515 3.25C2.92515 4.9045 4.33334 6.25 6.06494 6.25Z" fill="#5C5C5C"/>
</svg>
