<svg width="19" height="18" viewBox="0 0 19 18" fill="none" xmlns="http://www.w3.org/2000/svg">
<path fill-rule="evenodd" clip-rule="evenodd" d="M5.88301 7.13754C4.288 8.78679 4.32175 11.4013 5.98427 13.0205C6.7959 13.8133 7.87442 14.2505 9.02358 14.2513H9.02751C10.179 14.2513 11.2615 13.814 12.077 13.0205C13.7694 11.372 13.7662 8.69079 12.07 7.04454L9.72611 4.75629C9.48906 6.61779 8.75827 8.25129 7.45683 8.25129C7.05808 8.25129 6.40814 8.08179 5.88301 7.13754ZM9.02751 15.7513H9.02201C7.44741 15.7498 5.97014 15.1535 4.86258 14.0698C2.57525 11.8423 2.57211 8.21754 4.85552 5.99379L5.62712 5.24829C5.8265 5.05779 6.11614 4.98429 6.39009 5.05254C6.66246 5.12304 6.8744 5.32779 6.94504 5.58879C7.12558 6.25554 7.34066 6.58329 7.45918 6.70779C7.73784 6.42729 8.24178 5.29404 8.24178 3.37629C8.24178 3.26604 8.24178 3.16179 8.2355 3.05754C8.22058 2.83629 8.30928 2.61954 8.47726 2.46654C8.78888 2.18379 9.28811 2.18379 9.58717 2.47779L13.1901 5.99454C15.4821 8.21754 15.486 11.8423 13.1979 14.0705C12.0841 15.155 10.6037 15.7513 9.02751 15.7513Z" fill="#5C5C5C"/>
<mask id="mask0_1228_13710" style="mask-type:luminance" maskUnits="userSpaceOnUse" x="3" y="2" width="12" height="14">
<path fill-rule="evenodd" clip-rule="evenodd" d="M5.88301 7.13754C4.288 8.78679 4.32175 11.4013 5.98427 13.0205C6.7959 13.8133 7.87442 14.2505 9.02358 14.2513H9.02751C10.179 14.2513 11.2615 13.814 12.077 13.0205C13.7694 11.372 13.7662 8.69079 12.07 7.04454L9.72611 4.75629C9.48906 6.61779 8.75827 8.25129 7.45683 8.25129C7.05808 8.25129 6.40814 8.08179 5.88301 7.13754ZM9.02751 15.7513H9.02201C7.44741 15.7498 5.97014 15.1535 4.86258 14.0698C2.57525 11.8423 2.57211 8.21754 4.85552 5.99379L5.62712 5.24829C5.8265 5.05779 6.11614 4.98429 6.39009 5.05254C6.66246 5.12304 6.8744 5.32779 6.94504 5.58879C7.12558 6.25554 7.34066 6.58329 7.45918 6.70779C7.73784 6.42729 8.24178 5.29404 8.24178 3.37629C8.24178 3.26604 8.24178 3.16179 8.2355 3.05754C8.22058 2.83629 8.30928 2.61954 8.47726 2.46654C8.78888 2.18379 9.28811 2.18379 9.58717 2.47779L13.1901 5.99454C15.4821 8.21754 15.486 11.8423 13.1979 14.0705C12.0841 15.155 10.6037 15.7513 9.02751 15.7513Z" fill="white"/>
</mask>
<g mask="url(#mask0_1228_13710)">
</g>
</svg>
