<svg width="19" height="18" viewBox="0 0 19 18" fill="none" xmlns="http://www.w3.org/2000/svg">
<path fill-rule="evenodd" clip-rule="evenodd" d="M5.3941 9.5998H9.42009C9.64302 9.5998 9.85574 9.69055 10.0041 9.8488C10.1524 10.0071 10.2239 10.2186 10.2003 10.4301L9.84789 13.5426L13.4461 8.3998H9.42009C9.19717 8.3998 8.98445 8.30905 8.83609 8.1508C8.68695 7.99255 8.61552 7.78105 8.63986 7.56955L8.9923 4.4578L5.3941 9.5998ZM8.72228 17.2498C8.63279 17.2498 8.54252 17.2356 8.45382 17.2048C8.11473 17.0863 7.90279 16.7623 7.94204 16.4196L8.54566 11.0998H3.92547C3.63582 11.0998 3.36973 10.9476 3.23315 10.7038C3.09657 10.4593 3.11227 10.1631 3.27318 9.9328L9.46562 1.08355C9.66578 0.795553 10.0457 0.677053 10.3856 0.795553C10.7255 0.913303 10.9374 1.23805 10.8981 1.5808L10.2945 6.8998H14.9147C15.2044 6.8998 15.4705 7.0528 15.607 7.29655C15.7436 7.54105 15.7279 7.83655 15.567 8.0668L9.37457 16.9168C9.22621 17.1298 8.97817 17.2498 8.72228 17.2498Z" fill="#5C5C5C"/>
<mask id="mask0_460_885" style="mask-type:luminance" maskUnits="userSpaceOnUse" x="3" y="0" width="13" height="18">
<path fill-rule="evenodd" clip-rule="evenodd" d="M5.3941 9.5998H9.42009C9.64302 9.5998 9.85574 9.69055 10.0041 9.8488C10.1524 10.0071 10.2239 10.2186 10.2003 10.4301L9.84789 13.5426L13.4461 8.3998H9.42009C9.19717 8.3998 8.98445 8.30905 8.83609 8.1508C8.68695 7.99255 8.61552 7.78105 8.63986 7.56955L8.9923 4.4578L5.3941 9.5998ZM8.72228 17.2498C8.63279 17.2498 8.54252 17.2356 8.45382 17.2048C8.11473 17.0863 7.90279 16.7623 7.94204 16.4196L8.54566 11.0998H3.92547C3.63582 11.0998 3.36973 10.9476 3.23315 10.7038C3.09657 10.4593 3.11227 10.1631 3.27318 9.9328L9.46562 1.08355C9.66578 0.795553 10.0457 0.677053 10.3856 0.795553C10.7255 0.913303 10.9374 1.23805 10.8981 1.5808L10.2945 6.8998H14.9147C15.2044 6.8998 15.4705 7.0528 15.607 7.29655C15.7436 7.54105 15.7279 7.83655 15.567 8.0668L9.37457 16.9168C9.22621 17.1298 8.97817 17.2498 8.72228 17.2498Z" fill="white"/>
</mask>
<g mask="url(#mask0_460_885)">
</g>
</svg>
