<svg width="19" height="18" viewBox="0 0 19 18" fill="none" xmlns="http://www.w3.org/2000/svg">
<path fill-rule="evenodd" clip-rule="evenodd" d="M16.4815 8.2305H16.4838C16.9163 8.2305 17.268 8.565 17.2688 8.97825C17.2751 10.9815 16.4642 12.8678 14.9854 14.2882C13.5073 15.7088 11.5387 16.494 9.44209 16.5H9.41932C7.33058 16.5 5.36586 15.726 3.88467 14.3182C2.39798 12.906 1.57614 11.025 1.56986 9.02175C1.56358 7.01775 2.37443 5.13225 3.85327 3.71175C5.33132 2.29125 7.29997 1.506 9.39656 1.5C10.0206 1.509 10.6564 1.569 11.2655 1.7085C11.6862 1.806 11.9461 2.211 11.844 2.61375C11.7428 3.01575 11.3165 3.26325 10.8974 3.16725C10.4099 3.05475 9.89264 3.0075 9.40127 3C7.72384 3.0045 6.14845 3.633 4.96632 4.76925C3.78341 5.9055 3.13504 7.4145 3.13975 9.01725C3.14446 10.62 3.80225 12.1245 4.99144 13.2548C6.17671 14.3805 7.74817 15 9.41932 15H9.43738C11.1148 14.9955 12.6902 14.367 13.8723 13.2308C15.0552 12.0938 15.7036 10.5855 15.6989 8.98275C15.6981 8.56875 16.0482 8.23125 16.4815 8.2305ZM6.50953 8.46968C6.81644 8.17643 7.31253 8.17643 7.61944 8.46968L9.38086 10.1527L14.3237 4.75568C14.6094 4.44593 15.1047 4.41293 15.4312 4.68593C15.757 4.95818 15.7899 5.43218 15.5042 5.74418L10.0096 11.7442C9.86674 11.9002 9.66266 11.9924 9.44523 11.9999H9.41932C9.21131 11.9999 9.01194 11.9212 8.86437 11.7802L6.50953 9.53018C6.20261 9.23693 6.20261 8.76293 6.50953 8.46968Z" fill="#5C5C5C"/>
<mask id="mask0_1228_7694" style="mask-type:luminance" maskUnits="userSpaceOnUse" x="1" y="1" width="17" height="16">
<path fill-rule="evenodd" clip-rule="evenodd" d="M16.4815 8.2305H16.4838C16.9163 8.2305 17.268 8.565 17.2688 8.97825C17.2751 10.9815 16.4642 12.8678 14.9854 14.2882C13.5073 15.7088 11.5387 16.494 9.44209 16.5H9.41932C7.33058 16.5 5.36586 15.726 3.88467 14.3182C2.39798 12.906 1.57614 11.025 1.56986 9.02175C1.56358 7.01775 2.37443 5.13225 3.85327 3.71175C5.33132 2.29125 7.29997 1.506 9.39656 1.5C10.0206 1.509 10.6564 1.569 11.2655 1.7085C11.6862 1.806 11.9461 2.211 11.844 2.61375C11.7428 3.01575 11.3165 3.26325 10.8974 3.16725C10.4099 3.05475 9.89264 3.0075 9.40127 3C7.72384 3.0045 6.14845 3.633 4.96632 4.76925C3.78341 5.9055 3.13504 7.4145 3.13975 9.01725C3.14446 10.62 3.80225 12.1245 4.99144 13.2548C6.17671 14.3805 7.74817 15 9.41932 15H9.43738C11.1148 14.9955 12.6902 14.367 13.8723 13.2308C15.0552 12.0938 15.7036 10.5855 15.6989 8.98275C15.6981 8.56875 16.0482 8.23125 16.4815 8.2305ZM6.50953 8.46968C6.81644 8.17643 7.31253 8.17643 7.61944 8.46968L9.38086 10.1527L14.3237 4.75568C14.6094 4.44593 15.1047 4.41293 15.4312 4.68593C15.757 4.95818 15.7899 5.43218 15.5042 5.74418L10.0096 11.7442C9.86674 11.9002 9.66266 11.9924 9.44523 11.9999H9.41932C9.21131 11.9999 9.01194 11.9212 8.86437 11.7802L6.50953 9.53018C6.20261 9.23693 6.20261 8.76293 6.50953 8.46968Z" fill="white"/>
</mask>
<g mask="url(#mask0_1228_7694)">
</g>
</svg>
