<svg width="19" height="18" viewBox="0 0 19 18" fill="none" xmlns="http://www.w3.org/2000/svg">
<path fill-rule="evenodd" clip-rule="evenodd" d="M14.9131 15C14.9131 15.414 14.5622 15.75 14.1281 15.75C13.6941 15.75 13.3432 15.414 13.3432 15C13.3432 12.9323 11.5825 11.25 9.41845 11.25C7.25435 11.25 5.49372 12.9323 5.49372 15C5.49372 15.414 5.14285 15.75 4.70877 15.75C4.2747 15.75 3.92383 15.414 3.92383 15C3.92383 12.105 6.38934 9.75 9.41845 9.75C12.4476 9.75 14.9131 12.105 14.9131 15ZM9.41845 3.75C10.2842 3.75 10.9883 4.42275 10.9883 5.25C10.9883 6.07725 10.2842 6.75 9.41845 6.75C8.55266 6.75 7.84856 6.07725 7.84856 5.25C7.84856 4.42275 8.55266 3.75 9.41845 3.75ZM9.41845 8.25C11.15 8.25 12.5582 6.9045 12.5582 5.25C12.5582 3.5955 11.15 2.25 9.41845 2.25C7.68686 2.25 6.27867 3.5955 6.27867 5.25C6.27867 6.9045 7.68686 8.25 9.41845 8.25Z" fill="#5C5C5C"/>
</svg>
