<svg width="42" height="42" viewBox="0 0 42 42" fill="none" xmlns="http://www.w3.org/2000/svg">
<path opacity="0.5" d="M27.7491 18V18.7041C27.7491 19.5491 27.9903 20.3752 28.4422 21.0782L29.5496 22.8012C30.5612 24.3749 29.789 26.5139 28.0296 27.0116C23.4273 28.3134 18.5727 28.3134 13.9704 27.0116C12.211 26.5139 11.4388 24.3749 12.4504 22.8012L13.5578 21.0782C14.0097 20.3752 14.2509 19.5491 14.2509 18.7041V18C14.2509 14.134 17.2726 11 21 11C24.7274 11 27.7491 14.134 27.7491 18Z" fill="#EA4335"/>
<path d="M16.2422 27.5449C16.8931 29.5501 18.7767 30.9997 20.9988 30.9997C23.221 30.9997 25.1046 29.5501 25.7555 27.5449C22.61 28.1352 19.3876 28.1352 16.2422 27.5449Z" fill="#EA4335"/>
<path d="M18.3477 18C18.3477 18.4142 18.6714 18.75 19.0708 18.75H21.1817L18.5595 21.4697C18.3527 21.6842 18.2908 22.0068 18.4027 22.287C18.5146 22.5673 18.7783 22.75 19.0708 22.75H22.9274C23.3268 22.75 23.6506 22.4142 23.6506 22C23.6506 21.5858 23.3268 21.25 22.9274 21.25H20.8166L23.4388 18.5303C23.6456 18.3158 23.7074 17.9932 23.5955 17.713C23.4836 17.4327 23.2199 17.25 22.9274 17.25H19.0708C18.6714 17.25 18.3477 17.5858 18.3477 18Z" fill="#EA4335"/>
<rect x="0.5" y="0.5" width="41" height="41" rx="20.5" stroke="#FFCFCF"/>
</svg>
