<svg width="50" height="50" viewBox="0 0 50 50" fill="none" xmlns="http://www.w3.org/2000/svg">
<path d="M30.625 19.5V17.25C30.625 15.1287 30.625 14.068 29.966 13.409C29.307 12.75 28.2463 12.75 26.125 12.75H23.875C21.7537 12.75 20.693 12.75 20.034 13.409C19.375 14.068 19.375 15.1287 19.375 17.25V19.5" stroke="#C49991" stroke-width="1.6875"/>
<path d="M24.0392 24.0253C24.4667 23.2584 24.6804 22.875 25 22.875C25.3196 22.875 25.5333 23.2584 25.9608 24.0253L26.0714 24.2237C26.1929 24.4417 26.2536 24.5506 26.3483 24.6225C26.443 24.6944 26.561 24.7211 26.7969 24.7745L27.0117 24.8231C27.8418 25.0109 28.2569 25.1048 28.3556 25.4224C28.4544 25.7399 28.1714 26.0708 27.6055 26.7326L27.4591 26.9038C27.2982 27.0919 27.2178 27.1859 27.1816 27.3022C27.1455 27.4186 27.1576 27.544 27.1819 27.7949L27.2041 28.0234C27.2896 28.9063 27.3324 29.3478 27.0739 29.5441C26.8154 29.7403 26.4267 29.5614 25.6495 29.2035L25.4484 29.1109C25.2275 29.0092 25.1171 28.9584 25 28.9584C24.8829 28.9584 24.7725 29.0092 24.5516 29.1109L24.3505 29.2035C23.5733 29.5614 23.1846 29.7403 22.9261 29.5441C22.6676 29.3478 22.7104 28.9063 22.7959 28.0234L22.8181 27.7949C22.8424 27.544 22.8545 27.4186 22.8184 27.3022C22.7822 27.1859 22.7018 27.0919 22.5409 26.9038L22.3945 26.7326C21.8286 26.0708 21.5456 25.7399 21.6444 25.4224C21.7431 25.1048 22.1582 25.0109 22.9883 24.8231L23.2031 24.7745C23.439 24.7211 23.557 24.6944 23.6517 24.6225C23.7464 24.5506 23.8071 24.4417 23.9286 24.2237L24.0392 24.0253Z" stroke="#C49991" stroke-width="1.6875"/>
<circle cx="25" cy="26.25" r="9" stroke="#C49991" stroke-width="1.6875"/>
<rect x="0.5" y="0.5" width="49" height="49" rx="24.5" stroke="#DADADA"/>
</svg>
