<svg width="16" height="16" viewBox="0 0 16 16" fill="none" xmlns="http://www.w3.org/2000/svg">
<path fill-rule="evenodd" clip-rule="evenodd" d="M9.06699 13.3332H6.93366C4.92233 13.3332 3.91667 13.3332 3.29183 12.7083C2.66699 12.0835 2.66699 11.0778 2.66699 9.0665V6.93317C2.66699 4.92184 2.66699 3.91618 3.29183 3.29134C3.91667 2.6665 4.92763 2.6665 6.94955 2.6665C7.27275 2.6665 7.53174 2.6665 7.74966 2.67539C7.74249 2.71802 7.73873 2.76151 7.73858 2.80547L7.73366 4.31715C7.73361 4.90228 7.73357 5.41938 7.78961 5.83619C7.85035 6.28798 7.98982 6.73971 8.3585 7.10839C8.72718 7.47707 9.1789 7.61654 9.6307 7.67728C10.0475 7.73332 10.5646 7.73328 11.1497 7.73323L11.2003 7.73323H13.3109C13.3337 8.01817 13.3337 8.36789 13.3337 8.83338V9.0665C13.3337 11.0778 13.3337 12.0835 12.7088 12.7083C12.084 13.3332 11.0783 13.3332 9.06699 13.3332ZM4.40033 9.33317C4.40033 9.11226 4.57941 8.93317 4.80033 8.93317H9.06699C9.28791 8.93317 9.46699 9.11226 9.46699 9.33317C9.46699 9.55408 9.28791 9.73317 9.06699 9.73317H4.80033C4.57941 9.73317 4.40033 9.55408 4.40033 9.33317ZM4.40033 11.1998C4.40033 10.9789 4.57941 10.7998 4.80033 10.7998H7.73366C7.95457 10.7998 8.13366 10.9789 8.13366 11.1998C8.13366 11.4208 7.95457 11.5998 7.73366 11.5998H4.80033C4.57941 11.5998 4.40033 11.4208 4.40033 11.1998Z" fill="#279AF1"/>
<path d="M11.9212 5.66205L9.80989 3.76184C9.20837 3.22047 8.90761 2.94978 8.53858 2.80817L8.53366 4.26656C8.53366 5.52364 8.53366 6.15218 8.92418 6.5427C9.31471 6.93323 9.94325 6.93323 11.2003 6.93323H13.1097C12.9163 6.55764 12.5701 6.24605 11.9212 5.66205Z" fill="#279AF1"/>
</svg>
