<svg width="24" height="24" viewBox="0 0 24 24" fill="none" xmlns="http://www.w3.org/2000/svg">
<rect width="24" height="24" rx="12" fill="white"/>
<path fill-rule="evenodd" clip-rule="evenodd" d="M15.1102 8.11111C15.1102 9.82689 13.7149 11.2222 11.9991 11.2222C10.2834 11.2222 8.88802 9.82689 8.88802 8.11111C8.88802 6.39533 10.2834 5 11.9991 5C13.7149 5 15.1102 6.39533 15.1102 8.11111ZM17.4436 18.2222C17.4436 18.6516 17.0959 19 16.6658 19H7.33247C6.90235 19 6.55469 18.6516 6.55469 18.2222C6.55469 15.22 8.99769 12.7778 11.9991 12.7778C15.0006 12.7778 17.4436 15.22 17.4436 18.2222Z" fill="#888888"/>
<mask id="mask0_924_19563" style="mask-type:luminance" maskUnits="userSpaceOnUse" x="5" y="3" width="14" height="18">
<path fill-rule="evenodd" clip-rule="evenodd" d="M16 7C16 9.206 14.206 11 12 11C9.794 11 8 9.206 8 7C8 4.794 9.794 3 12 3C14.206 3 16 4.794 16 7ZM19 20C19 20.552 18.553 21 18 21H6C5.447 21 5 20.552 5 20C5 16.14 8.141 13 12 13C15.859 13 19 16.14 19 20Z" fill="white"/>
</mask>
<g mask="url(#mask0_924_19563)">
</g>
</svg>
