<svg width="80" height="80" viewBox="0 0 80 80" fill="none" xmlns="http://www.w3.org/2000/svg">
<path d="M26.5601 13.333C27.6735 13.333 28.576 14.1596 28.576 15.1792V18.9032C30.3643 18.8715 32.3687 18.8715 34.624 18.8715H45.3759C47.6312 18.8715 49.6356 18.8715 51.4238 18.9032V15.1792C51.4238 14.1596 52.3264 13.333 53.4398 13.333C54.5532 13.333 55.4558 14.1596 55.4558 15.1792V19.0666C59.3246 19.3503 61.8645 20.0465 63.7305 21.7553C65.5965 23.4641 66.3568 25.79 66.6666 29.333V31.9997H13.3333V29.333C13.6431 25.79 14.4034 23.4641 16.2694 21.7553C18.1354 20.0465 20.6752 19.3503 24.5441 19.0666V15.1792C24.5441 14.1596 25.4467 13.333 26.5601 13.333Z" fill="#C49991"/>
<path opacity="0.5" d="M66.6666 45.3333V40C66.6666 37.7626 66.6328 33.774 66.5984 32H13.3489C13.3145 33.774 13.3483 37.7626 13.3483 40V45.3333C13.3483 55.39 13.3483 60.4183 16.4716 63.5425C19.5949 66.6667 24.6218 66.6667 34.6756 66.6667H45.3393C55.3931 66.6667 60.42 66.6667 63.5433 63.5425C66.6666 60.4183 66.6666 55.39 66.6666 45.3333Z" fill="#C49991"/>
<path d="M60 70.5C66.3513 70.5 71.5 65.3513 71.5 59C71.5 52.6487 66.3513 47.5 60 47.5C53.6487 47.5 48.5 52.6487 48.5 59C48.5 65.3513 53.6487 70.5 60 70.5Z" fill="#10CD43" stroke="white" stroke-width="3" stroke-linecap="round"/>
</svg>
