<svg width="50" height="50" viewBox="0 0 50 50" fill="none" xmlns="http://www.w3.org/2000/svg">
<path d="M16 24C16 20.2288 16 18.3431 17.1716 17.1716C18.3431 16 20.2288 16 24 16H26C29.7712 16 31.6569 16 32.8284 17.1716C34 18.3431 34 20.2288 34 24V28C34 31.7712 34 33.6569 32.8284 34.8284C31.6569 36 29.7712 36 26 36H24C20.2288 36 18.3431 36 17.1716 34.8284C16 33.6569 16 31.7712 16 28V24Z" stroke="#C49991" stroke-width="1.5"/>
<path d="M21 26H29" stroke="#C49991" stroke-width="1.5" stroke-linecap="round"/>
<path d="M21 22H29" stroke="#C49991" stroke-width="1.5" stroke-linecap="round"/>
<path d="M21 30H26" stroke="#C49991" stroke-width="1.5" stroke-linecap="round"/>
<rect x="0.5" y="0.5" width="49" height="49" rx="24.5" stroke="#DADADA"/>
</svg>
