<svg width="19" height="18" viewBox="0 0 19 18" fill="none" xmlns="http://www.w3.org/2000/svg">
<path fill-rule="evenodd" clip-rule="evenodd" d="M5.88252 7.13754C4.28751 8.78679 4.32127 11.4013 5.98378 13.0205C6.79542 13.8133 7.87393 14.2505 9.02309 14.2513H9.02702C10.1785 14.2513 11.261 13.814 12.0765 13.0205C13.7689 11.372 13.7657 8.69079 12.0695 7.04454L9.72562 4.75629C9.48857 6.61779 8.75778 8.25129 7.45634 8.25129C7.05759 8.25129 6.40765 8.08179 5.88252 7.13754ZM9.02702 15.7513H9.02152C7.44692 15.7498 5.96965 15.1535 4.86209 14.0698C2.57476 11.8423 2.57162 8.21754 4.85503 5.99379L5.62663 5.24829C5.82601 5.05779 6.11565 4.98429 6.3896 5.05254C6.66198 5.12304 6.87391 5.32779 6.94456 5.58879C7.12509 6.25554 7.34017 6.58329 7.4587 6.70779C7.73735 6.42729 8.24129 5.29404 8.24129 3.37629C8.24129 3.26604 8.24129 3.16179 8.23501 3.05754C8.22009 2.83629 8.30879 2.61954 8.47677 2.46654C8.78839 2.18379 9.28762 2.18379 9.58668 2.47779L13.1896 5.99454C15.4816 8.21754 15.4856 11.8423 13.1974 14.0705C12.0836 15.155 10.6032 15.7513 9.02702 15.7513Z" fill="#5C5C5C"/>
<mask id="mask0_762_11596" style="mask-type:luminance" maskUnits="userSpaceOnUse" x="3" y="2" width="12" height="14">
<path fill-rule="evenodd" clip-rule="evenodd" d="M5.88252 7.13754C4.28751 8.78679 4.32127 11.4013 5.98378 13.0205C6.79542 13.8133 7.87393 14.2505 9.02309 14.2513H9.02702C10.1785 14.2513 11.261 13.814 12.0765 13.0205C13.7689 11.372 13.7657 8.69079 12.0695 7.04454L9.72562 4.75629C9.48857 6.61779 8.75778 8.25129 7.45634 8.25129C7.05759 8.25129 6.40765 8.08179 5.88252 7.13754ZM9.02702 15.7513H9.02152C7.44692 15.7498 5.96965 15.1535 4.86209 14.0698C2.57476 11.8423 2.57162 8.21754 4.85503 5.99379L5.62663 5.24829C5.82601 5.05779 6.11565 4.98429 6.3896 5.05254C6.66198 5.12304 6.87391 5.32779 6.94456 5.58879C7.12509 6.25554 7.34017 6.58329 7.4587 6.70779C7.73735 6.42729 8.24129 5.29404 8.24129 3.37629C8.24129 3.26604 8.24129 3.16179 8.23501 3.05754C8.22009 2.83629 8.30879 2.61954 8.47677 2.46654C8.78839 2.18379 9.28762 2.18379 9.58668 2.47779L13.1896 5.99454C15.4816 8.21754 15.4856 11.8423 13.1974 14.0705C12.0836 15.155 10.6032 15.7513 9.02702 15.7513Z" fill="white"/>
</mask>
<g mask="url(#mask0_762_11596)">
</g>
</svg>
