<svg width="19" height="18" viewBox="0 0 19 18" fill="none" xmlns="http://www.w3.org/2000/svg">
<path fill-rule="evenodd" clip-rule="evenodd" d="M16.482 8.2305H16.4843C16.9168 8.2305 17.2685 8.565 17.2693 8.97825C17.2756 10.9815 16.4647 12.8678 14.9859 14.2882C13.5078 15.7088 11.5392 16.494 9.44257 16.5H9.41981C7.33107 16.5 5.36635 15.726 3.88515 14.3182C2.39847 12.906 1.57663 11.025 1.57035 9.02175C1.56407 7.01775 2.37492 5.13225 3.85376 3.71175C5.33181 2.29125 7.30046 1.506 9.39705 1.5C10.0211 1.509 10.6569 1.569 11.266 1.7085C11.6867 1.806 11.9466 2.211 11.8445 2.61375C11.7433 3.01575 11.317 3.26325 10.8979 3.16725C10.4104 3.05475 9.89313 3.0075 9.40176 3C7.72433 3.0045 6.14894 3.633 4.96681 4.76925C3.7839 5.9055 3.13553 7.4145 3.14024 9.01725C3.14495 10.62 3.80274 12.1245 4.99193 13.2548C6.1772 14.3805 7.74866 15 9.41981 15H9.43786C11.1153 14.9955 12.6907 14.367 13.8728 13.2308C15.0557 12.0938 15.7041 10.5855 15.6994 8.98275C15.6986 8.56875 16.0487 8.23125 16.482 8.2305ZM6.51002 8.46968C6.81693 8.17643 7.31301 8.17643 7.61993 8.46968L9.38135 10.1527L14.3242 4.75568C14.6099 4.44593 15.1052 4.41293 15.4317 4.68593C15.7575 4.95818 15.7904 5.43218 15.5047 5.74418L10.0101 11.7442C9.86723 11.9002 9.66314 11.9924 9.44571 11.9999H9.41981C9.2118 11.9999 9.01242 11.9212 8.86485 11.7802L6.51002 9.53018C6.2031 9.23693 6.2031 8.76293 6.51002 8.46968Z" fill="#5C5C5C"/>
<mask id="mask0_762_10324" style="mask-type:luminance" maskUnits="userSpaceOnUse" x="1" y="1" width="17" height="16">
<path fill-rule="evenodd" clip-rule="evenodd" d="M16.482 8.2305H16.4843C16.9168 8.2305 17.2685 8.565 17.2693 8.97825C17.2756 10.9815 16.4647 12.8678 14.9859 14.2882C13.5078 15.7088 11.5392 16.494 9.44257 16.5H9.41981C7.33107 16.5 5.36635 15.726 3.88515 14.3182C2.39847 12.906 1.57663 11.025 1.57035 9.02175C1.56407 7.01775 2.37492 5.13225 3.85376 3.71175C5.33181 2.29125 7.30046 1.506 9.39705 1.5C10.0211 1.509 10.6569 1.569 11.266 1.7085C11.6867 1.806 11.9466 2.211 11.8445 2.61375C11.7433 3.01575 11.317 3.26325 10.8979 3.16725C10.4104 3.05475 9.89313 3.0075 9.40176 3C7.72433 3.0045 6.14894 3.633 4.96681 4.76925C3.7839 5.9055 3.13553 7.4145 3.14024 9.01725C3.14495 10.62 3.80274 12.1245 4.99193 13.2548C6.1772 14.3805 7.74866 15 9.41981 15H9.43786C11.1153 14.9955 12.6907 14.367 13.8728 13.2308C15.0557 12.0938 15.7041 10.5855 15.6994 8.98275C15.6986 8.56875 16.0487 8.23125 16.482 8.2305ZM6.51002 8.46968C6.81693 8.17643 7.31301 8.17643 7.61993 8.46968L9.38135 10.1527L14.3242 4.75568C14.6099 4.44593 15.1052 4.41293 15.4317 4.68593C15.7575 4.95818 15.7904 5.43218 15.5047 5.74418L10.0101 11.7442C9.86723 11.9002 9.66314 11.9924 9.44571 11.9999H9.41981C9.2118 11.9999 9.01242 11.9212 8.86485 11.7802L6.51002 9.53018C6.2031 9.23693 6.2031 8.76293 6.51002 8.46968Z" fill="white"/>
</mask>
<g mask="url(#mask0_762_10324)">
</g>
</svg>
