<svg width="19" height="18" viewBox="0 0 19 18" fill="none" xmlns="http://www.w3.org/2000/svg">
<path fill-rule="evenodd" clip-rule="evenodd" d="M8.63483 6C8.63483 5.586 8.98648 5.25 9.41977 5.25C9.85307 5.25 10.2047 5.586 10.2047 6V9.75C10.2047 10.164 9.85307 10.5 9.41977 10.5C8.98648 10.5 8.63483 10.164 8.63483 9.75V6ZM8.63483 12C8.63483 11.586 8.98648 11.25 9.41977 11.25C9.85307 11.25 10.2047 11.586 10.2047 12C10.2047 12.414 9.85307 12.75 9.41977 12.75C8.98648 12.75 8.63483 12.414 8.63483 12ZM9.41977 15C5.95738 15 3.1402 12.3082 3.1402 9C3.1402 5.69175 5.95738 3 9.41977 3C12.8822 3 15.6993 5.69175 15.6993 9C15.6993 12.3082 12.8822 15 9.41977 15ZM9.41977 1.5C5.08452 1.5 1.57031 4.85775 1.57031 9C1.57031 13.1423 5.08452 16.5 9.41977 16.5C13.755 16.5 17.2692 13.1423 17.2692 9C17.2692 4.85775 13.755 1.5 9.41977 1.5Z" fill="#5C5C5C"/>
<mask id="mask0_762_11463" style="mask-type:luminance" maskUnits="userSpaceOnUse" x="1" y="1" width="17" height="16">
<path fill-rule="evenodd" clip-rule="evenodd" d="M8.63483 6C8.63483 5.586 8.98648 5.25 9.41977 5.25C9.85307 5.25 10.2047 5.586 10.2047 6V9.75C10.2047 10.164 9.85307 10.5 9.41977 10.5C8.98648 10.5 8.63483 10.164 8.63483 9.75V6ZM8.63483 12C8.63483 11.586 8.98648 11.25 9.41977 11.25C9.85307 11.25 10.2047 11.586 10.2047 12C10.2047 12.414 9.85307 12.75 9.41977 12.75C8.98648 12.75 8.63483 12.414 8.63483 12ZM9.41977 15C5.95738 15 3.1402 12.3082 3.1402 9C3.1402 5.69175 5.95738 3 9.41977 3C12.8822 3 15.6993 5.69175 15.6993 9C15.6993 12.3082 12.8822 15 9.41977 15ZM9.41977 1.5C5.08452 1.5 1.57031 4.85775 1.57031 9C1.57031 13.1423 5.08452 16.5 9.41977 16.5C13.755 16.5 17.2692 13.1423 17.2692 9C17.2692 4.85775 13.755 1.5 9.41977 1.5Z" fill="white"/>
</mask>
<g mask="url(#mask0_762_11463)">
</g>
</svg>
