<svg width="20" height="20" viewBox="0 0 20 20" fill="none" xmlns="http://www.w3.org/2000/svg">
<path fill-rule="evenodd" clip-rule="evenodd" d="M9.99939 11.2502C9.31022 11.2502 8.74939 10.6893 8.74939 10.0002C8.74939 9.31101 9.31022 8.75018 9.99939 8.75018C10.6886 8.75018 11.2494 9.31101 11.2494 10.0002C11.2494 10.6893 10.6886 11.2502 9.99939 11.2502ZM9.99939 7.08351C8.39106 7.08351 7.08272 8.39185 7.08272 10.0002C7.08272 11.6085 8.39106 12.9168 9.99939 12.9168C11.6077 12.9168 12.9161 11.6085 12.9161 10.0002C12.9161 8.39185 11.6077 7.08351 9.99939 7.08351ZM10.1825 14.1648C6.59414 14.2482 4.25331 11.179 3.47664 9.99651C4.33164 8.65901 6.48497 5.92068 9.81664 5.83568C13.3908 5.74485 15.745 8.82151 16.5216 10.004C15.6675 11.3415 13.5133 14.0798 10.1825 14.1648ZM18.2225 9.58568C17.6908 8.65901 14.7541 4.01401 9.77414 4.16985C5.16747 4.28651 2.48831 8.34485 1.77664 9.58568C1.62914 9.84235 1.62914 10.1582 1.77664 10.4148C2.30081 11.329 5.13414 15.8332 10.02 15.8332C10.0883 15.8332 10.1566 15.8323 10.225 15.8307C14.8308 15.7132 17.5108 11.6557 18.2225 10.4148C18.3691 10.1582 18.3691 9.84235 18.2225 9.58568Z" fill="#C5CEE0"/>
<mask id="mask0_762_4080" style="mask-type:luminance" maskUnits="userSpaceOnUse" x="1" y="4" width="18" height="12">
<path fill-rule="evenodd" clip-rule="evenodd" d="M9.99939 11.2502C9.31022 11.2502 8.74939 10.6893 8.74939 10.0002C8.74939 9.31101 9.31022 8.75018 9.99939 8.75018C10.6886 8.75018 11.2494 9.31101 11.2494 10.0002C11.2494 10.6893 10.6886 11.2502 9.99939 11.2502ZM9.99939 7.08351C8.39106 7.08351 7.08272 8.39185 7.08272 10.0002C7.08272 11.6085 8.39106 12.9168 9.99939 12.9168C11.6077 12.9168 12.9161 11.6085 12.9161 10.0002C12.9161 8.39185 11.6077 7.08351 9.99939 7.08351ZM10.1825 14.1648C6.59414 14.2482 4.25331 11.179 3.47664 9.99651C4.33164 8.65901 6.48497 5.92068 9.81664 5.83568C13.3908 5.74485 15.745 8.82151 16.5216 10.004C15.6675 11.3415 13.5133 14.0798 10.1825 14.1648ZM18.2225 9.58568C17.6908 8.65901 14.7541 4.01401 9.77414 4.16985C5.16747 4.28651 2.48831 8.34485 1.77664 9.58568C1.62914 9.84235 1.62914 10.1582 1.77664 10.4148C2.30081 11.329 5.13414 15.8332 10.02 15.8332C10.0883 15.8332 10.1566 15.8323 10.225 15.8307C14.8308 15.7132 17.5108 11.6557 18.2225 10.4148C18.3691 10.1582 18.3691 9.84235 18.2225 9.58568Z" fill="white"/>
</mask>
<g mask="url(#mask0_762_4080)">
</g>
</svg>
