<svg width="32" height="32" viewBox="0 0 32 32" fill="none" xmlns="http://www.w3.org/2000/svg">
<rect width="32" height="32" rx="8" fill="#DEF1FF"/>
<path fill-rule="evenodd" clip-rule="evenodd" d="M17.6 24H14.4C11.383 24 9.87452 24 8.93726 23.0627C8 22.1255 8 20.617 8 17.6V14.4C8 11.383 8 9.87452 8.93726 8.93726C9.87452 8 11.391 8 14.4238 8C14.9086 8 15.2971 8 15.624 8.01333C15.6132 8.07727 15.6076 8.1425 15.6074 8.20845L15.6 10.476C15.5999 11.3537 15.5999 12.1293 15.6839 12.7545C15.775 13.4322 15.9842 14.1098 16.5373 14.6628C17.0903 15.2158 17.7679 15.425 18.4456 15.5162C19.0708 15.6002 19.8464 15.6002 20.7241 15.6001L20.8 15.6001H23.9659C24 16.0275 24 16.5521 24 17.2503V17.6C24 20.617 24 22.1255 23.0627 23.0627C22.1255 24 20.617 24 17.6 24ZM10.6 18C10.6 17.6686 10.8686 17.4 11.2 17.4H17.6C17.9314 17.4 18.2 17.6686 18.2 18C18.2 18.3314 17.9314 18.6 17.6 18.6H11.2C10.8686 18.6 10.6 18.3314 10.6 18ZM10.6 20.8C10.6 20.4686 10.8686 20.2 11.2 20.2H15.6C15.9314 20.2 16.2 20.4686 16.2 20.8C16.2 21.1314 15.9314 21.4 15.6 21.4H11.2C10.8686 21.4 10.6 21.1314 10.6 20.8Z" fill="#279AF1"/>
<path d="M21.8814 12.4933L18.7144 9.643C17.8121 8.83094 17.3609 8.42491 16.8074 8.2125L16.8 10.4001C16.8 12.2857 16.8 13.2285 17.3858 13.8143C17.9716 14.4001 18.9144 14.4001 20.8 14.4001H23.6641C23.374 13.8367 22.8547 13.3693 21.8814 12.4933Z" fill="#279AF1"/>
</svg>
