<svg width="17" height="18" viewBox="0 0 17 18" fill="none" xmlns="http://www.w3.org/2000/svg">
<path d="M3.9668 14.6665H13.0335" stroke="#279AF1" stroke-linecap="round"/>
<path d="M9.57003 4.27582L9.99021 3.85564C10.6864 3.15945 11.8151 3.15945 12.5113 3.85564C13.2075 4.55182 13.2075 5.68056 12.5113 6.37675L12.0911 6.79693M9.57003 4.27582C9.57003 4.27582 9.62255 5.16871 10.4104 5.95656C11.1982 6.74441 12.0911 6.79693 12.0911 6.79693M9.57003 4.27582L5.70706 8.13878C5.44542 8.40043 5.31459 8.53125 5.20208 8.6755C5.06936 8.84566 4.95558 9.02977 4.86274 9.22457C4.78404 9.38971 4.72553 9.56523 4.60852 9.91627L4.11268 11.4038M12.0911 6.79693L8.22818 10.6599C7.96653 10.9215 7.83571 11.0524 7.69146 11.1649C7.5213 11.2976 7.33719 11.4114 7.14239 11.5042C6.97725 11.5829 6.80173 11.6414 6.45069 11.7584L4.96319 12.2543M4.96319 12.2543L4.59958 12.3755C4.42683 12.4331 4.23638 12.3881 4.10762 12.2593C3.97886 12.1306 3.9339 11.9401 3.99148 11.7674L4.11268 11.4038M4.96319 12.2543L4.11268 11.4038" stroke="#279AF1"/>
</svg>
