<svg width="16" height="16" viewBox="0 0 16 16" fill="none" xmlns="http://www.w3.org/2000/svg">
<path fill-rule="evenodd" clip-rule="evenodd" d="M4.06802 10.5821L6.05268 10.4015L9.78602 6.66481L7.98868 4.86681L4.24402 8.61148L4.06802 10.5821ZM8.88202 3.97414L10.6787 5.77081L11.9767 4.47081L10.1807 2.67481L8.88202 3.97414ZM2.86138 11.7901C2.72138 11.6501 2.65138 11.4555 2.66872 11.2581L2.92138 8.47814C2.94938 8.17348 3.08405 7.88614 3.30138 7.66881L9.29872 1.67148C9.76672 1.20148 10.6154 1.22481 11.1094 1.71748L12.9347 3.54281L12.9354 3.54348C13.4454 4.05414 13.4661 4.86614 12.9807 5.35281L6.98272 11.3508C6.76605 11.5675 6.47872 11.7021 6.17338 11.7301L3.39338 11.9828C3.37338 11.9841 3.35338 11.9848 3.33272 11.9848C3.15738 11.9848 2.98738 11.9155 2.86138 11.7901ZM13.3327 13.9848C13.3327 14.3515 13.0327 14.6515 12.666 14.6515H3.33268C2.96668 14.6515 2.66602 14.3515 2.66602 13.9848C2.66602 13.6188 2.96668 13.3181 3.33268 13.3181H12.666C13.0327 13.3181 13.3327 13.6188 13.3327 13.9848Z" fill="white"/>
</svg>
