<svg width="20" height="20" viewBox="0 0 20 20" fill="none" xmlns="http://www.w3.org/2000/svg">
<path fill-rule="evenodd" clip-rule="evenodd" d="M5.08453 13.2279L7.56536 13.0021L12.232 8.33126L9.98536 6.08376L5.30453 10.7646L5.08453 13.2279ZM11.102 4.96792L13.3479 7.21376L14.9704 5.58876L12.7254 3.34376L11.102 4.96792ZM3.57622 14.7379C3.40122 14.5629 3.31372 14.3196 3.33538 14.0729L3.65122 10.5979C3.68622 10.2171 3.85455 9.85792 4.12622 9.58626L11.6229 2.08959C12.2079 1.50209 13.2687 1.53126 13.8862 2.14709L16.1679 4.42876L16.1687 4.42959C16.8062 5.06792 16.832 6.08292 16.2254 6.69126L8.72788 14.1888C8.45705 14.4596 8.09788 14.6279 7.71622 14.6629L4.24122 14.9788C4.21622 14.9804 4.19122 14.9813 4.16538 14.9813C3.94622 14.9813 3.73372 14.8946 3.57622 14.7379ZM16.6654 17.4813C16.6654 17.9396 16.2904 18.3146 15.832 18.3146H4.16536C3.70786 18.3146 3.33203 17.9396 3.33203 17.4813C3.33203 17.0238 3.70786 16.6479 4.16536 16.6479H15.832C16.2904 16.6479 16.6654 17.0238 16.6654 17.4813Z" fill="#C5CEE0"/>
</svg>
