<svg width="20" height="20" viewBox="0 0 20 20" fill="none" xmlns="http://www.w3.org/2000/svg">
<path fill-rule="evenodd" clip-rule="evenodd" d="M8.33268 13.3332C8.33268 13.7915 7.95768 14.1665 7.49935 14.1665C7.04102 14.1665 6.66602 13.7915 6.66602 13.3332V9.99984C6.66602 9.5415 7.04102 9.1665 7.49935 9.1665C7.95768 9.1665 8.33268 9.5415 8.33268 9.99984V13.3332ZM13.3327 13.3332C13.3327 13.7915 12.9577 14.1665 12.4993 14.1665C12.041 14.1665 11.666 13.7915 11.666 13.3332V9.99984C11.666 9.5415 12.041 9.1665 12.4993 9.1665C12.9577 9.1665 13.3327 9.5415 13.3327 9.99984V13.3332ZM14.9993 15.8332C14.9993 16.2923 14.626 16.6665 14.166 16.6665H5.83268C5.37268 16.6665 4.99935 16.2923 4.99935 15.8332V6.6665H14.9993V15.8332ZM8.33268 3.6065C8.33268 3.47734 8.51102 3.33317 8.74935 3.33317H11.2493C11.4877 3.33317 11.666 3.47734 11.666 3.6065V4.99984H8.33268V3.6065ZM17.4993 4.99984H16.666H13.3327V3.6065C13.3327 2.5365 12.3985 1.6665 11.2493 1.6665H8.74935C7.60018 1.6665 6.66602 2.5365 6.66602 3.6065V4.99984H3.33268H2.49935C2.04102 4.99984 1.66602 5.37484 1.66602 5.83317C1.66602 6.2915 2.04102 6.6665 2.49935 6.6665H3.33268V15.8332C3.33268 17.2115 4.45435 18.3332 5.83268 18.3332H14.166C15.5443 18.3332 16.666 17.2115 16.666 15.8332V6.6665H17.4993C17.9577 6.6665 18.3327 6.2915 18.3327 5.83317C18.3327 5.37484 17.9577 4.99984 17.4993 4.99984Z" fill="#C5CEE0"/>
<mask id="mask0_707_1164" style="mask-type:luminance" maskUnits="userSpaceOnUse" x="1" y="1" width="18" height="18">
<path fill-rule="evenodd" clip-rule="evenodd" d="M8.33268 13.3332C8.33268 13.7915 7.95768 14.1665 7.49935 14.1665C7.04102 14.1665 6.66602 13.7915 6.66602 13.3332V9.99984C6.66602 9.5415 7.04102 9.1665 7.49935 9.1665C7.95768 9.1665 8.33268 9.5415 8.33268 9.99984V13.3332ZM13.3327 13.3332C13.3327 13.7915 12.9577 14.1665 12.4993 14.1665C12.041 14.1665 11.666 13.7915 11.666 13.3332V9.99984C11.666 9.5415 12.041 9.1665 12.4993 9.1665C12.9577 9.1665 13.3327 9.5415 13.3327 9.99984V13.3332ZM14.9993 15.8332C14.9993 16.2923 14.626 16.6665 14.166 16.6665H5.83268C5.37268 16.6665 4.99935 16.2923 4.99935 15.8332V6.6665H14.9993V15.8332ZM8.33268 3.6065C8.33268 3.47734 8.51102 3.33317 8.74935 3.33317H11.2493C11.4877 3.33317 11.666 3.47734 11.666 3.6065V4.99984H8.33268V3.6065ZM17.4993 4.99984H16.666H13.3327V3.6065C13.3327 2.5365 12.3985 1.6665 11.2493 1.6665H8.74935C7.60018 1.6665 6.66602 2.5365 6.66602 3.6065V4.99984H3.33268H2.49935C2.04102 4.99984 1.66602 5.37484 1.66602 5.83317C1.66602 6.2915 2.04102 6.6665 2.49935 6.6665H3.33268V15.8332C3.33268 17.2115 4.45435 18.3332 5.83268 18.3332H14.166C15.5443 18.3332 16.666 17.2115 16.666 15.8332V6.6665H17.4993C17.9577 6.6665 18.3327 6.2915 18.3327 5.83317C18.3327 5.37484 17.9577 4.99984 17.4993 4.99984Z" fill="white"/>
</mask>
<g mask="url(#mask0_707_1164)">
</g>
</svg>
