<svg width="18" height="18" viewBox="0 0 18 18" fill="none" xmlns="http://www.w3.org/2000/svg">
<path fill-rule="evenodd" clip-rule="evenodd" d="M5.29232 4.75V4.04167C5.29232 3.25926 5.92658 2.625 6.70898 2.625H10.959C11.7414 2.625 12.3757 3.25926 12.3757 4.04167V4.75H14.5007C14.8919 4.75 15.209 5.06713 15.209 5.45833C15.209 5.84953 14.8919 6.16667 14.5007 6.16667H13.7923V13.9583C13.7923 15.1319 12.8409 16.0833 11.6673 16.0833H6.00065C4.82705 16.0833 3.87565 15.1319 3.87565 13.9583V6.16667H3.16732C2.77612 6.16667 2.45898 5.84953 2.45898 5.45833C2.45898 5.06713 2.77612 4.75 3.16732 4.75H5.29232ZM6.70898 4.04167H10.959V4.75H6.70898V4.04167ZM5.29232 6.16667H12.3757V13.9583C12.3757 14.3495 12.0585 14.6667 11.6673 14.6667H6.00065C5.60945 14.6667 5.29232 14.3495 5.29232 13.9583V6.16667Z" fill="#F61717"/>
</svg>
